<?xml version="1.0" encoding="iso-8859-1"?>
<!-- Generator: Adobe Illustrator 19.0.0, SVG Export Plug-In . SVG Version: 6.00 Build 0)  -->
<svg version="1.1" id="Capa_1" xmlns="http://www.w3.org/2000/svg" xmlns:xlink="http://www.w3.org/1999/xlink" x="0px" y="0px"
	 viewBox="0 0 508 508" style="enable-background:new 0 0 508 508;" xml:space="preserve">
<g>
	<g>
		<path d="M508,32.8H0v360.5h140.8c-25.4,15.6-44.3,41.3-50.5,72.1l-2,9.8h331.3l-2-9.8c-6.2-30.8-25.1-56.5-50.5-72.1H508V32.8z
			 M399.1,458.8H108.9c12.2-38.5,48.3-65.5,89.4-65.5h111.5C350.9,393.3,387,420.3,399.1,458.8z M491.6,376.9H309.7H198.3H16.4v-41
			h475.2V376.9z M491.6,319.6H16.4V49.2h475.2V319.6z"/>
	</g>
</g>
<g>
	<g>
		<path d="M86.7,73.7L41,119.5V295h147.5V73.7H86.7z M81.9,101.7v13h-13L81.9,101.7z M172.1,278.6H57.4V131.1h41v-41h73.7V278.6z"/>
	</g>
</g>
<g>
	<g>
		<path d="M81.9,229.4h65.5v-81.9H81.9V229.4z M98.3,163.8h32.8V213H98.3V163.8z"/>
	</g>
</g>
<g>
	<g>
		<rect x="73.7" y="245.8" width="81.9" height="16.4"/>
	</g>
</g>
<g>
	<g>
		<path d="M434.3,229.4H259.5l-43.7,32.8l43.7,32.8h174.8c18.1,0,32.8-14.7,32.8-32.8C467.1,244.1,452.4,229.4,434.3,229.4z
			 M262.2,276.6l-19.1-14.3l19.1-14.4V276.6z M409.7,278.6H278.6v-32.8h131.1V278.6z M434.2,278.6H426v-32.8h8.2
			c9.1,0,16.4,7.4,16.4,16.4C450.6,271.2,443.3,278.6,434.2,278.6z"/>
	</g>
</g>
<g>
	<g>
		<path d="M221.2,114.7V213H467v-98.3H221.2z M450.8,196.6h-0.2h-213v-65.5H254v16.4h16.4v-16.4h16.4v16.4h16.4v-16.4h16.4v16.4H336
			v-16.4h16.4v16.4h16.4v-16.4h16.4v16.4h16.4v-16.4H418v16.4h16.4v-16.4h16.4V196.6z"/>
	</g>
</g>
<g>
</g>
<g>
</g>
<g>
</g>
<g>
</g>
<g>
</g>
<g>
</g>
<g>
</g>
<g>
</g>
<g>
</g>
<g>
</g>
<g>
</g>
<g>
</g>
<g>
</g>
<g>
</g>
<g>
</g>
</svg>
